<svg xmlns="http://www.w3.org/2000/svg" xmlns:xlink="http://www.w3.org/1999/xlink" width="454" zoomAndPan="magnify" viewBox="0 0 340.5 340.499998" height="454" preserveAspectRatio="xMidYMid meet" version="1.0"><defs><clipPath id="fb94f450eb"><path d="M 0.574219 1.242188 L 176.742188 1.242188 L 176.742188 146.675781 L 0.574219 146.675781 Z M 0.574219 1.242188 " clip-rule="nonzero"/></clipPath><clipPath id="c7a2d06028"><path d="M 87.90625 6.226562 L 205.480469 6.226562 L 205.480469 146.410156 L 87.90625 146.410156 Z M 87.90625 6.226562 " clip-rule="nonzero"/></clipPath><clipPath id="7d9acf7e9b"><rect x="0" width="206" y="0" height="148"/></clipPath></defs><g transform="matrix(1, 0, 0, 1, 67, 96)"><g clip-path="url(#7d9acf7e9b)"><g clip-path="url(#fb94f450eb)"><path fill="#ffffff" d="M 88.1875 94.496094 C 102.210938 71.773438 116.15625 49.171875 130.101562 26.578125 C 130.019531 26.449219 129.9375 26.324219 129.851562 26.195312 C 118.851562 30.257812 107.855469 34.320312 96.246094 38.613281 C 98.097656 35.613281 99.601562 33.148438 101.128906 30.691406 C 105.601562 23.484375 110.121094 16.3125 114.515625 9.0625 C 115.367188 7.65625 116.394531 7.074219 117.925781 6.929688 C 131.515625 5.632812 145.109375 4.300781 158.699219 2.992188 C 164.480469 2.433594 170.265625 1.898438 176.710938 1.292969 C 147.082031 49.957031 117.722656 98.183594 88.148438 146.761719 C 58.996094 98.390625 29.957031 50.226562 0.589844 1.5 C 5.367188 1.910156 9.425781 2.222656 13.472656 2.609375 C 29.210938 4.113281 44.953125 5.625 60.683594 7.199219 C 61.566406 7.289062 62.765625 7.742188 63.175781 8.410156 C 69.132812 18.238281 74.972656 28.132812 80.628906 38.445312 C 69.636719 34.519531 58.644531 30.589844 47.261719 26.527344 C 61.03125 49.390625 74.550781 71.835938 88.191406 94.492188 Z M 88.1875 94.496094 " fill-opacity="1" fill-rule="nonzero"/></g><g clip-path="url(#c7a2d06028)"><path fill="#ffffff" d="M 143.644531 105.277344 L 205.414062 105.277344 L 194.15625 146.746094 L 87.90625 146.746094 L 90.152344 138.394531 L 187.769531 138.394531 L 194.488281 113.632812 L 132.765625 113.632812 L 159.289062 14.585938 L 123.402344 14.585938 L 125.648438 6.230469 L 170.179688 6.230469 Z M 143.644531 105.277344 " fill-opacity="1" fill-rule="evenodd"/></g></g></g></svg>